<?xml version="1.0" encoding="UTF-8" standalone="no"?>
<!-- Generator: Adobe Illustrator 19.0.0, SVG Export Plug-In . SVG Version: 6.00 Build 0)  -->

<svg
   xmlns:dc="http://purl.org/dc/elements/1.1/"
   xmlns:cc="http://creativecommons.org/ns#"
   xmlns:rdf="http://www.w3.org/1999/02/22-rdf-syntax-ns#"
   xmlns:svg="http://www.w3.org/2000/svg"
   xmlns="http://www.w3.org/2000/svg"
   xmlns:sodipodi="http://sodipodi.sourceforge.net/DTD/sodipodi-0.dtd"
   xmlns:inkscape="http://www.inkscape.org/namespaces/inkscape"
   version="1.1"
   id="Capa_1"
   x="0px"
   y="0px"
   viewBox="0 0 511.914 511.914"
   style="enable-background:new 0 0 511.914 511.914;"
   xml:space="preserve"
   sodipodi:docname="bell.svg"
   inkscape:version="0.91 r13725"><metadata
     id="metadata4550"><rdf:RDF><cc:Work
         rdf:about=""><dc:format>image/svg+xml</dc:format><dc:type
           rdf:resource="http://purl.org/dc/dcmitype/StillImage" /></cc:Work></rdf:RDF></metadata><defs
     id="defs4548" /><sodipodi:namedview
     pagecolor="#ffffff"
     bordercolor="#666666"
     borderopacity="1"
     objecttolerance="10"
     gridtolerance="10"
     guidetolerance="10"
     inkscape:pageopacity="0"
     inkscape:pageshadow="2"
     inkscape:window-width="1920"
     inkscape:window-height="1007"
     id="namedview4546"
     showgrid="false"
     inkscape:zoom="1.1754863"
     inkscape:cx="224.5326"
     inkscape:cy="222.31618"
     inkscape:window-x="0"
     inkscape:window-y="27"
     inkscape:window-maximized="1"
     inkscape:current-layer="Capa_1" /><path
     style="fill:#fdd36e"
     d="m 403.95403,110.18364 c 1.3503,-6.82111 12.41249,-26.29359 15.84548,-32.40992 l 0,0 C 438.02508,45.311353 390.70425,17.203364 372.47483,49.672665 l 0,0 c -3.433,6.116328 -16.45469,24.424725 -21.52383,29.037465 11.64639,6.91514 43.6588,25.92436 53.00303,31.47351 z"
     id="path4487"
     inkscape:connector-curvature="0" /><path
     style="fill:#fbb659"
     d="m 374.91074,92.93735 c 4.72745,-5.65308 10.89664,-13.95204 18.56627,-26.29952 7.35683,-11.843645 18.80687,-14.818164 28.95861,-12.14357 -6.74472,-19.28341 -35.2664,-28.544516 -49.16583,-6.165823 -0.27333,0.439498 -0.538,0.886913 -0.794,1.344228 -3.433,6.116328 -16.45469,24.424725 -21.52382,29.037465 7.31351,4.34349 21.72785,12.9018 23.95877,14.22722 z"
     id="path4489"
     inkscape:connector-curvature="0" /><ellipse
     style="fill:#db9e82"
     cx="170.68561"
     cy="323.43552"
     id="circle4491"
     rx="42.022648"
     ry="43.220139" /><path
     style="fill:#c9886f"
     d="m 191.69454,286.01297 c -27.76423,-16.52467 -63.03255,4.01091 -63.03255,37.42355 0,33.40768 35.2664,53.9492 63.03255,37.42353 -28.00099,-16.66622 -27.98848,-58.18777 0,-74.84708 z"
     id="path4493"
     inkscape:connector-curvature="0" /><path
     style="fill:#fdd36e"
     d="M 418.99685,245.56445 C 492.0252,115.47146 306.27781,2.0902233 229.52291,125.66303 c -1.88636,3.03588 -3.28766,5.57091 -3.23184,5.47093 -29.51393,52.57627 -75.70199,93.12182 -130.822383,114.84324 l 0,0 c -4.353079,1.71543 -4.825632,7.85751 -0.788232,10.25492 19.384335,11.51008 303.937865,180.4797 284.788355,169.10823 4.03645,2.39742 8.97083,-1.09379 8.23939,-5.82828 l 0,0 c -9.27111,-59.95665 1.77568,-121.37037 31.28865,-173.94762 z"
     id="path4495"
     inkscape:connector-curvature="0" /><path
     style="fill:#fbb659"
     d="M 145.0599,286.14859 C 194.98895,259.87382 237.42063,218.19687 266.37057,166.62431 299.89111,108.30686 351.822,90.18752 399.84061,105.37293 351.99813,60.429444 270.27034,54.783297 226.29107,131.13396 196.77714,183.71023 150.58908,224.25578 95.468687,245.9772 l 0,0 c -4.353079,1.71543 -4.825632,7.85751 -0.788232,10.25492 23.421735,13.90849 29.563975,17.55612 50.379445,29.91647 z"
     id="path4497"
     inkscape:connector-curvature="0" /><path
     style="fill:#f7a15f"
     d="M 396.95908,325.94779 C 368.39893,308.98855 198.1794,207.91125 169.62694,190.95697 c -6.88331,-4.08711 -15.76561,-1.64018 -19.73948,5.43928 -3.97387,7.07944 -1.59378,16.21485 5.28953,20.30198 45.70299,27.13792 178.17402,105.7999 227.33215,134.99079 6.88331,4.08712 15.7656,1.63921 19.73947,-5.43927 3.97484,-7.08045 1.59378,-16.21583 -5.28953,-20.30196 z"
     id="path4499"
     inkscape:connector-curvature="0" /><path
     style="fill:#ed8f4f"
     d="m 201.35062,226.95513 c 3.97388,-7.07946 12.85713,-9.52738 19.74043,-5.44026 -15.9985,-9.49967 -44.20641,-26.25003 -51.46314,-30.55888 -6.88331,-4.08711 -15.76463,-1.6402 -19.73948,5.44026 -3.97292,7.07944 -1.59377,16.21387 5.28953,20.30198 l 51.46313,30.55886 c -6.88426,-4.08711 -9.26436,-13.22349 -5.29047,-20.30196 z"
     id="path4501"
     inkscape:connector-curvature="0" /><g
     id="g4509"
     transform="matrix(1.0053356,0,0,1.0262011,42.414952,-22.397567)"><path
       style="fill:#e8f7f9"
       d="m 98.821,391.942 c -3.611,-2.028 -8.182,-0.744 -10.21,2.868 l -20.002,35.629 c 3.352,3.597 6.827,7.104 10.409,10.524 0.913,-0.629 1.704,-1.463 2.283,-2.495 l 20.389,-36.317 c 2.028,-3.611 0.744,-8.181 -2.869,-10.209 z"
       id="path4503"
       inkscape:connector-curvature="0" /><path
       style="fill:#e8f7f9"
       d="M 29.179,374.686 53.38,360.321 c 3.561,-2.114 4.735,-6.714 2.621,-10.276 -2.115,-3.561 -6.714,-4.735 -10.276,-2.621 l -23.116,13.721 c 2.057,4.572 4.244,9.088 6.57,13.541 z"
       id="path4505"
       inkscape:connector-curvature="0" /><path
       style="fill:#e8f7f9"
       d="m 157.107,408.418 c 4.141,0.05 7.458,3.447 7.408,7.589 l -0.502,41.646 c -0.05,4.141 -3.447,7.458 -7.589,7.408 -4.141,-0.05 -7.458,-3.447 -7.408,-7.589 l 0.502,-41.646 c 0.05,-4.141 3.447,-7.458 7.589,-7.408 z"
       id="path4507"
       inkscape:connector-curvature="0" /></g><ellipse
     style="fill:#f7a15f"
     cx="396.75122"
     cy="62.719975"
     id="circle4511"
     rx="12.567432"
     ry="12.925557" /><path
     style="fill:#ce9c42"
     d="m 406.90582,55.122819 c -2.73138,-3.852525 -7.42709,-6.008434 -12.30276,-5.13637 -10.95537,1.957939 -14.17374,16.567241 -5.18751,23.219081 4.01141,-6.05792 7.3934,-14.304425 17.49027,-18.082711 z"
     id="path4513"
     inkscape:connector-curvature="0" /><g
     id="g4515" /><g
     id="g4517" /><g
     id="g4519" /><g
     id="g4521" /><g
     id="g4523" /><g
     id="g4525" /><g
     id="g4527" /><g
     id="g4529" /><g
     id="g4531" /><g
     id="g4533" /><g
     id="g4535" /><g
     id="g4537" /><g
     id="g4539" /><g
     id="g4541" /><g
     id="g4543" /><path
     style="fill:#a0a0a0;stroke:none;stroke-width:0.60154408"
     d="m 68.000866,357.77396 c -1.650098,-3.64612 -2.91447,-6.71744 -2.809712,-6.82519 0.104757,-0.10773 5.501617,-3.42138 11.993021,-7.36362 12.826755,-7.78972 14.202258,-8.24911 17.850312,-5.96157 3.428669,2.14997 4.426077,7.15959 2.104254,10.56891 -0.837448,1.22971 -24.522977,16.21075 -25.62972,16.21075 -0.279387,0 -1.858057,-2.98317 -3.508155,-6.62928 z"
     id="path5792"
     inkscape:connector-curvature="0" /><path
     style="fill:#a0a0a0;stroke:none;stroke-width:0.60154408"
     d="m 114.38153,424.9771 c -2.61994,-2.70866 -4.75885,-5.18718 -4.75314,-5.50783 0.006,-0.32068 4.40634,-8.62149 9.77919,-18.44631 10.91204,-19.95377 11.64693,-20.87476 16.24307,-20.3563 3.69855,0.4172 6.38829,3.46686 6.38829,7.2431 0,2.36358 -1.14844,4.79597 -9.63302,20.40266 -9.32102,17.14525 -11.96487,21.58953 -12.84335,21.58953 -0.22964,0 -2.56111,-2.21619 -5.18104,-4.92485 z"
     id="path5794"
     inkscape:connector-curvature="0" /><path
     style="fill:#008000;stroke:none;stroke-width:0.60154408"
     d="m 197.80139,454.78286 c -2.17104,-0.60269 -3.84152,-2.09059 -4.89759,-4.36229 -0.95851,-2.06181 -1.00903,-4.15411 -0.60605,-25.09564 0.48119,-25.00509 0.51926,-25.25833 4.1471,-27.58399 3.01364,-1.93192 6.77651,-1.30247 9.35009,1.56408 l 2.01278,2.24188 -0.17775,23.92837 c -0.1607,21.63436 -0.28,24.08758 -1.24447,25.58906 -1.89517,2.9504 -5.58821,4.55017 -8.58411,3.71853 z"
     id="path5796"
     inkscape:connector-curvature="0" /><path
     style="fill:#a0a0a0;stroke:none;stroke-width:0.60154408"
     d="m 114.6702,424.67864 c -2.46028,-2.54531 -4.47324,-4.98447 -4.47324,-5.42032 0,-0.92651 13.47862,-25.91164 17.12678,-31.74766 3.51483,-5.62273 4.42928,-6.43503 7.24432,-6.43503 4.28775,0 7.1235,2.74162 7.1235,6.887 0,2.38965 -3.55363,9.64252 -13.40099,27.35097 -6.29442,11.31922 -7.97378,13.99289 -8.78907,13.99289 -0.19693,0 -2.37102,-2.08252 -4.8313,-4.62785 z"
     id="path5798"
     inkscape:connector-curvature="0" /><path
     style="fill:#000000;stroke:none;stroke-width:0.60154408"
     d="m 68.306751,357.85015 c -1.478711,-3.27672 -2.688565,-6.16181 -2.688565,-6.41132 0,-0.44054 16.803996,-10.90462 20.808201,-12.95756 4.637887,-2.37781 7.531289,-2.14637 10.089093,0.80702 1.339664,1.54685 1.895174,6.02048 0.96868,7.80099 -0.377535,0.72555 -2.816976,2.73248 -5.42098,4.45989 -8.572954,5.68699 -19.432657,12.25862 -20.257542,12.25862 -0.461336,0 -1.96823,-2.56582 -3.498887,-5.95764 z"
     id="path5800"
     inkscape:connector-curvature="0" /><path
     style="fill:#a0a0a0;stroke:none;stroke-width:0.60154408"
     d="m 114.66044,424.71582 c -2.45492,-2.52486 -4.46348,-4.96099 -4.46348,-5.41362 0,-1.01158 13.41372,-25.87512 17.45589,-32.35606 3.23895,-5.19311 4.06282,-5.87051 7.13996,-5.87051 3.69701,0 5.87427,1.79315 6.92865,5.70628 0.65918,2.44647 -1.47086,6.96177 -14.0213,29.72257 -5.00243,9.07213 -7.3764,12.80201 -8.14815,12.80201 -0.23545,0 -2.43666,-2.0658 -4.89157,-4.59067 z"
     id="path5802"
     inkscape:connector-curvature="0" /><path
     style="fill:none;stroke:none;stroke-width:0.60154408"
     d="m 196.12071,453.62783 c -3.33707,-1.84827 -3.48643,-2.83542 -3.46855,-22.9236 0.009,-10.11751 0.26571,-21.03447 0.57043,-24.25988 0.51382,-5.43873 0.6889,-5.98761 2.41215,-7.56198 1.44718,-1.32214 2.4631,-1.6976 4.59341,-1.6976 2.33621,0 3.08107,0.33772 5.10551,2.31489 l 2.37024,2.31488 -0.42821,24.1649 c -0.40681,22.95831 -0.48853,24.23288 -1.63629,25.52704 -2.68033,3.0222 -6.39678,3.85044 -9.51869,2.12135 z"
     id="path5804"
     inkscape:connector-curvature="0" /><path
     style="fill:#000000;stroke:none;stroke-width:0.60154408"
     d="m 114.62309,424.75424 c -2.43437,-2.50372 -4.42613,-4.96414 -4.42613,-5.46753 0,-1.08184 14.08074,-27.18947 17.80509,-33.01307 2.88614,-4.51295 3.7811,-5.19801 6.79076,-5.19801 2.95766,0 5.18855,1.37709 6.36634,3.92982 0.86511,1.87504 0.91178,2.55323 0.31951,4.6409 -0.81417,2.86976 -4.56639,10.24651 -12.75292,25.07181 -5.96484,10.80194 -8.35557,14.58833 -9.21108,14.58833 -0.256,0 -2.4572,-2.04851 -4.89157,-4.55225 z"
     id="path5806"
     inkscape:connector-curvature="0" /><path
     style="fill:#000000;stroke:none;stroke-width:0.60154408"
     d="m 196.12071,453.62783 c -3.33707,-1.84827 -3.48643,-2.83542 -3.46855,-22.9236 0.009,-10.11751 0.26571,-21.03447 0.57043,-24.25988 0.51382,-5.43873 0.6889,-5.98761 2.41215,-7.56198 1.44718,-1.32214 2.4631,-1.6976 4.59341,-1.6976 2.33621,0 3.08107,0.33772 5.10551,2.31489 l 2.37024,2.31488 -0.42821,24.1649 c -0.40681,22.95831 -0.48853,24.23288 -1.63629,25.52704 -2.68033,3.0222 -6.39678,3.85044 -9.51869,2.12135 z"
     id="path5808"
     inkscape:connector-curvature="0" /></svg>