<?xml version="1.0" encoding="UTF-8" standalone="no"?>
<!-- Generator: Adobe Illustrator 18.1.1, SVG Export Plug-In . SVG Version: 6.00 Build 0)  -->

<svg
   xmlns:dc="http://purl.org/dc/elements/1.1/"
   xmlns:cc="http://creativecommons.org/ns#"
   xmlns:rdf="http://www.w3.org/1999/02/22-rdf-syntax-ns#"
   xmlns:svg="http://www.w3.org/2000/svg"
   xmlns="http://www.w3.org/2000/svg"
   xmlns:sodipodi="http://sodipodi.sourceforge.net/DTD/sodipodi-0.dtd"
   xmlns:inkscape="http://www.inkscape.org/namespaces/inkscape"
   version="1.1"
   id="Capa_1"
   x="0px"
   y="0px"
   viewBox="0 0 17 17"
   style="enable-background:new 0 0 17 17;"
   xml:space="preserve"
   inkscape:version="0.91 r13725"
   sodipodi:docname="user.svg"><metadata
     id="metadata4300"><rdf:RDF><cc:Work
         rdf:about=""><dc:format>image/svg+xml</dc:format><dc:type
           rdf:resource="http://purl.org/dc/dcmitype/StillImage" /></cc:Work></rdf:RDF></metadata><defs
     id="defs4298" /><sodipodi:namedview
     pagecolor="#ffffff"
     bordercolor="#666666"
     borderopacity="1"
     objecttolerance="10"
     gridtolerance="10"
     guidetolerance="10"
     inkscape:pageopacity="0"
     inkscape:pageshadow="2"
     inkscape:window-width="1920"
     inkscape:window-height="1007"
     id="namedview4296"
     showgrid="false"
     inkscape:zoom="22.627417"
     inkscape:cx="4.2341561"
     inkscape:cy="13.684723"
     inkscape:window-x="0"
     inkscape:window-y="27"
     inkscape:window-maximized="1"
     inkscape:current-layer="Capa_1" /><g
     id="g4260"
     transform="matrix(0.76061489,0,0,0.74783324,1.924288,2.1213204)"><path
       style="fill:#fec107;fill-opacity:1"
       d="M 13.5,5 C 13.5,3.619 12.94,2.369 12.036,1.465 11.131,0.56 9.881,0 8.5,0 7.119,0 5.869,0.56 4.964,1.465 4.06,2.369 3.5,3.619 3.5,5 3.5,6.381 4.06,7.631 4.964,8.535 5.869,9.44 7.119,10 8.5,10 9.881,10 11.131,9.44 12.036,8.535 12.94,7.631 13.5,6.381 13.5,5 Z"
       id="path4262"
       inkscape:connector-curvature="0" /><path
       style="fill:#fec104;fill-opacity:1"
       d="m 2.5,15 c 0,1 2.25,2 6,2 3.518,0 6,-1 6,-2 0,-2 -2.354,-4 -6,-4 -3.75,0 -6,2 -6,4 z"
       id="path4264"
       inkscape:connector-curvature="0" /></g><g
     id="g4266" /><g
     id="g4268" /><g
     id="g4270" /><g
     id="g4272" /><g
     id="g4274" /><g
     id="g4276" /><g
     id="g4278" /><g
     id="g4280" /><g
     id="g4282" /><g
     id="g4284" /><g
     id="g4286" /><g
     id="g4288" /><g
     id="g4290" /><g
     id="g4292" /><g
     id="g4294" /></svg>